<svg width="12" height="20" viewBox="0 0 12 20" fill="none" xmlns="http://www.w3.org/2000/svg">
<path d="M10.8262 19.6803L11.4858 19.0252C11.6918 18.819 11.8053 18.5447 11.8053 18.2515C11.8053 17.9585 11.6918 17.6839 11.4858 17.4777L4.01227 10.0045L11.4941 2.52262C11.7001 2.31677 11.8135 2.04213 11.8135 1.74912C11.8135 1.45611 11.7001 1.18131 11.4941 0.975292L10.8385 0.320003C10.4122 -0.106668 9.71769 -0.106668 9.29134 0.320003L0.35127 9.22804C0.145415 9.4339 0.000371509 9.70821 0.000371496 10.0038L0.000371496 10.0072C0.000371483 10.3004 0.145577 10.5747 0.35127 10.7806L9.26711 19.6803C9.47297 19.8865 9.75557 19.9997 10.0486 20C10.3418 20 10.6205 19.8865 10.8262 19.6803Z" fill="black"/>
</svg>
