<svg width="315" height="756" viewBox="0 0 315 756" fill="none" xmlns="http://www.w3.org/2000/svg">
<path d="M601.364 238.954C580.705 209.496 538.568 171.593 511.364 150.376C488.864 129.777 418.705 76.218 327.068 5.56185C325.636 4.53188 320.523 0 315.409 0C315.205 0 315.205 0 315 0C309.682 0.205995 304.364 4.53188 302.932 5.56185C211.295 76.218 141.136 129.777 118.636 150.376C91.4318 171.593 49.2955 209.496 28.6364 238.954C1.84091 277.063 0 313.112 0 341.951C0 379.236 0 327.943 0 420.229V465.548C0 638.789 144 756 316.023 756C316.432 756 316.636 756 317.045 756H630V457.308C630 455.66 630 455.042 630 455.042V408.075C630 332.475 630 377.588 630 341.951C630 313.112 628.159 277.063 601.364 238.954ZM317.045 611.804C316.636 611.804 316.432 611.804 316.023 611.804C222.955 611.804 143.182 534.556 143.182 440.828V436.708C143.182 430.735 143.182 420.229 143.182 420.229V381.09C144.205 363.374 137.455 320.94 184.091 286.332C206.182 268.205 314.591 179.215 315 179.215C315.409 179.215 423.818 268.205 445.909 286.332C478.432 310.64 485.591 346.483 486.818 366.464V381.09C486.818 381.09 486.409 436.502 486.818 436.708V611.804H317.045Z" fill="#E7EEFE"/>
</svg>
