<svg width="20" height="20" viewBox="0 0 20 20" fill="none" xmlns="http://www.w3.org/2000/svg">
<path d="M18.4316 0.945312H1.56836C0.701172 0.945312 0 1.64844 0 2.51367V14.1816C0 15.0469 0.701172 15.75 1.56836 15.75H3.35742L3.36133 15.7598V18.2285C3.36133 18.2285 3.55078 19.666 4.91016 18.7422C6.26953 17.8184 9.17188 15.8906 9.17188 15.8906C9.17188 15.8906 9.17969 15.748 10 15.748H18.4316C19.2969 15.748 20 15.0469 20 14.1797V2.51367C20 1.64844 19.2988 0.945312 18.4316 0.945312ZM10.6211 10.5918C10.4629 10.75 10.2422 10.8496 10 10.8496H4.23828C3.75391 10.8496 3.35938 10.4551 3.35938 9.9707C3.35938 9.72851 3.45703 9.50781 3.61719 9.34961C3.77734 9.19141 3.99609 9.09179 4.23828 9.09179H10C10.4844 9.09179 10.8789 9.48437 10.8789 9.9707C10.8789 10.2129 10.7812 10.4316 10.6211 10.5918ZM16.3828 7.38867C16.2246 7.54687 16.0039 7.64648 15.7617 7.64648H4.25781C3.77344 7.64648 3.37891 7.25195 3.37891 6.76758C3.37891 6.52539 3.47656 6.30469 3.63672 6.14648C3.79688 5.98828 4.01562 5.88867 4.25781 5.88867H15.7617C16.2461 5.88867 16.6406 6.28125 16.6406 6.76758C16.6406 7.00976 16.543 7.22851 16.3828 7.38867Z" fill="#4F5A6E"/>
</svg>
