<svg width="24" height="26" viewBox="0 0 24 26" fill="none" xmlns="http://www.w3.org/2000/svg">
<path d="M21.1751 2.46633C17.8867 -0.82211 12.5551 -0.82211 9.26667 2.46633L8.76993 2.96307L0.807584 10.9254C0.20867 11.5243 0.20867 12.4953 0.807584 13.0942C1.40614 13.6927 2.37708 13.6927 2.97604 13.0938L11.4351 4.63479C13.5257 2.54423 16.9154 2.54428 19.0063 4.63515C21.0968 6.72571 21.0968 10.1154 19.0063 12.2059L9.17522 22.037C7.98094 23.2313 6.04481 23.2313 4.85048 22.037C3.65656 20.843 3.65656 18.9069 4.85084 17.7126L7.01615 15.5473L13.3051 9.25837C13.6028 8.96069 14.0854 8.96069 14.3831 9.25837C14.6808 9.55605 14.6808 10.0386 14.3831 10.3364L7.30083 17.4186C6.70192 18.0175 6.70192 18.9884 7.30047 19.587C7.89939 20.1859 8.87038 20.1859 9.46929 19.587L16.5515 12.5048C18.0471 11.0092 18.0471 8.58471 16.5519 7.08951C15.0563 5.59395 12.6318 5.59395 11.1363 7.08951L2.68197 15.5438C0.289819 17.936 0.289818 21.814 2.68161 24.2059C5.07377 26.598 8.95183 26.598 11.344 24.2059L21.1751 14.3748C24.4636 11.0863 24.4636 5.75472 21.1751 2.46633Z" fill="#4574F7"/>
</svg>
