<svg width="12" height="14" viewBox="0 0 12 14" fill="none" xmlns="http://www.w3.org/2000/svg">
<path d="M11.4486 6.64206C11.2629 6.45643 11.0376 6.36369 10.7724 6.36369H10.4544V4.45449C10.4544 3.23482 10.017 2.18756 9.14194 1.31256C8.26697 0.43752 7.21982 0 5.99997 0C4.78015 0 3.73279 0.43752 2.85789 1.31252C1.98285 2.18756 1.54548 3.23478 1.54548 4.45449V6.36369H1.22734C0.962278 6.36369 0.736849 6.45643 0.551226 6.64206C0.365604 6.82754 0.272827 7.05297 0.272827 7.31828V13.0455C0.272827 13.3105 0.365639 13.536 0.551226 13.7217C0.736849 13.9072 0.962278 14 1.22734 14H10.7726C11.0379 14 11.2631 13.9073 11.4488 13.7217C11.6343 13.536 11.7272 13.3105 11.7272 13.0455V7.31817C11.7274 7.05307 11.6343 6.82768 11.4486 6.64206ZM8.54537 6.36369H3.45457V4.45449C3.45457 3.75188 3.70319 3.15193 4.20033 2.65486C4.69754 2.15772 5.29739 1.9092 6.00007 1.9092C6.70283 1.9092 7.30253 2.15768 7.79978 2.65486C8.29678 3.1519 8.54537 3.75188 8.54537 4.45449V6.36369Z" fill="black"/>
</svg>
