<svg width="14" height="14" viewBox="0 0 14 14" fill="none" xmlns="http://www.w3.org/2000/svg">
<path d="M13.0018 9.58188L11.0789 8.04337C10.7727 7.80099 10.3841 7.68742 9.99557 7.72674C9.60702 7.76606 9.24907 7.95517 8.99761 8.25398L8.74386 8.55905C8.63241 8.68395 8.47662 8.76042 8.30964 8.77219C8.14267 8.78395 7.97769 8.73009 7.84983 8.62205C6.97084 7.85522 6.14506 7.02946 5.37821 6.15048C5.26811 6.02353 5.21289 5.85806 5.22471 5.69043C5.23652 5.52279 5.31439 5.3667 5.44122 5.25645L5.74628 5.0027C6.04522 4.75136 6.23443 4.39342 6.27375 4.00485C6.31307 3.61628 6.19941 3.22769 5.9569 2.92155L4.41838 0.998479C4.27921 0.82846 4.10456 0.690915 3.90666 0.595472C3.70876 0.50003 3.49239 0.448997 3.27269 0.445946C3.053 0.442895 2.83529 0.487901 2.63482 0.577812C2.43434 0.667722 2.25594 0.800365 2.1121 0.966454L1.2854 1.94335C0.769876 2.55867 0.472978 3.3276 0.4412 4.12971C0.409422 4.93182 0.644559 5.72183 1.10979 6.37601C2.89348 8.9034 5.09678 11.1067 7.62417 12.8904C8.28101 13.3489 9.06981 13.5799 9.87021 13.5482C10.6706 13.5166 11.4387 13.2239 12.0573 12.715L13.0339 11.8881C13.1992 11.7438 13.3312 11.5652 13.4206 11.3648C13.51 11.1644 13.5547 10.947 13.5516 10.7276C13.5486 10.5081 13.4978 10.292 13.4029 10.0942C13.3079 9.89634 13.1711 9.72153 13.0018 9.58188Z" fill="black"/>
</svg>
