<svg width="20" height="20" viewBox="0 0 20 20" fill="none" xmlns="http://www.w3.org/2000/svg">
<path d="M17.6387 0H3.40234C4.70703 0 5.45508 1.11719 5.45508 2.42188C5.45508 2.42188 5.42188 15.1562 5.42188 17.5527C5.42188 19.9492 7.80078 20 7.80078 20H17.6387C18.9434 20 20 18.9434 20 17.6387V2.36133C20 1.05664 18.9434 0 17.6387 0V0ZM17.291 12.5117C17.1055 12.6973 16.8496 12.8105 16.5684 12.8105H8.82422C8.25977 12.8105 7.80273 12.3535 7.80273 11.7891C7.80273 11.5059 7.91797 11.252 8.10156 11.0664C8.28711 10.8809 8.54297 10.7676 8.82422 10.7676H16.5684C17.1328 10.7676 17.5898 11.2246 17.5898 11.791C17.5918 12.0703 17.4766 12.3262 17.291 12.5117ZM17.291 8.79688C17.1055 8.98242 16.8496 9.0957 16.5684 9.0957H8.82422C8.25977 9.0957 7.80273 8.63867 7.80273 8.07422C7.80273 7.79102 7.91797 7.53711 8.10156 7.35156C8.28711 7.16602 8.54297 7.05273 8.82422 7.05273H16.5684C17.1328 7.05273 17.5898 7.50977 17.5898 8.07422C17.5918 8.35547 17.4766 8.61133 17.291 8.79688ZM17.291 5.08203C17.1055 5.26758 16.8496 5.38086 16.5684 5.38086H8.82422C8.25977 5.38086 7.80273 4.92383 7.80273 4.35938C7.80273 4.07617 7.91797 3.82227 8.10156 3.63672C8.28711 3.45117 8.54297 3.33789 8.82422 3.33789H16.5684C17.1328 3.33789 17.5898 3.79492 17.5898 4.36133C17.5918 4.64062 17.4766 4.89648 17.291 5.08203ZM2.1875 1.17969H1.5625C0.699219 1.17969 0 1.87891 0 2.74219V8.81055C0 9.67383 0.699219 10.373 1.5625 10.373H3.75V2.74219C3.75 1.88086 3.05078 1.17969 2.1875 1.17969Z" fill="#4F5A6E"/>
</svg>
