<svg width="17" height="20" viewBox="0 0 17 20" fill="none" xmlns="http://www.w3.org/2000/svg">
<path d="M9.92188 2.78516V0H2.35547C1.05469 0 0 1.05469 0 2.35547V17.6445C0 18.9453 1.05469 20 2.35547 20H14.1484C15.4492 20 16.5039 18.9453 16.5039 17.6445V6.64453H13.7813C11.6504 6.64453 9.92188 4.91797 9.92188 2.78516ZM12.8477 15.2539C12.6621 15.4395 12.4062 15.5527 12.125 15.5527H4.37891C3.81445 15.5527 3.35742 15.0957 3.35742 14.5313C3.35742 14.248 3.47266 13.9941 3.65625 13.8086C3.8418 13.623 4.09766 13.5098 4.37891 13.5098H12.125C12.6895 13.5098 13.1465 13.9668 13.1465 14.5313C13.1484 14.8145 13.0332 15.0684 12.8477 15.2539ZM12.8477 11.6113C12.6621 11.7969 12.4062 11.9102 12.125 11.9102H4.37891C3.81445 11.9102 3.35742 11.4531 3.35742 10.8867C3.35742 10.6035 3.47266 10.3496 3.65625 10.1641C3.8418 9.97852 4.09766 9.86523 4.37891 9.86523H12.125C12.6895 9.86523 13.1465 10.3223 13.1465 10.8867C13.1484 11.1699 13.0332 11.4258 12.8477 11.6113ZM13.9355 5.05273H16.5039L11.5801 0V2.69727C11.5801 3.99805 12.6348 5.05273 13.9355 5.05273Z" fill="#5282FF"/>
</svg>
