<svg width="40" height="40" viewBox="0 0 40 40" fill="none" xmlns="http://www.w3.org/2000/svg">
<path d="M40 20C40 31.0457 31.0457 40 20 40C8.9543 40 0 31.0457 0 20C0 8.9543 8.9543 0 20 0C31.0457 0 40 8.9543 40 20Z" fill="#5282FF"/>
<path d="M21.875 10C17.6128 12.4558 18.125 19.375 18.125 19.375C18.125 19.375 16.25 18.75 16.25 15.9375C14.013 17.2346 12.5 19.7278 12.5 22.5C12.5 26.6421 15.8579 30 20 30C24.1422 30 27.5 26.6421 27.5 22.5C27.5 16.4063 21.875 15.1562 21.875 10V10ZM20.6588 27.4157C19.1517 27.7915 17.6253 26.8744 17.2494 25.3672C16.8737 23.8601 17.7908 22.3336 19.298 21.9578C22.9366 21.0506 23.3926 19.0045 23.3926 19.0045C23.3926 19.0045 25.2071 26.2817 20.6588 27.4157V27.4157Z" fill="white"/>
</svg>
