<svg width="14" height="14" viewBox="0 0 14 14" fill="none" xmlns="http://www.w3.org/2000/svg">
<path d="M12.4173 0.437988H1.58343C0.710146 0.437988 0 1.1479 0 2.02221V11.9792C0 12.8525 0.710146 13.5617 1.58343 13.5617H12.4173C13.2906 13.5617 14 12.8525 14 11.9792V2.02221C14 1.1479 13.2906 0.437988 12.4173 0.437988ZM9.05311 2.79404C9.89762 2.79404 10.5825 3.47897 10.5825 4.32343C10.5825 5.16789 9.89757 5.85282 9.05311 5.85282C8.20837 5.85282 7.52372 5.16789 7.52372 4.32343C7.52372 3.47897 8.20837 2.79404 9.05311 2.79404ZM11.9207 12.098H6.99986H2.29822C1.87582 12.098 1.6877 11.7924 1.87812 11.4153L4.50284 6.21659C4.69302 5.83961 5.05547 5.80596 5.31215 6.14137L7.95141 9.59045C8.20809 9.92591 8.65673 9.95445 8.95366 9.65391L9.59932 9.00009C9.89603 8.69955 10.3332 8.73676 10.5753 9.08267L12.2472 11.4709C12.4889 11.8173 12.3431 12.098 11.9207 12.098Z" fill="white"/>
</svg>
