<svg width="20" height="21" viewBox="0 0 20 21" fill="none" xmlns="http://www.w3.org/2000/svg">
<path d="M10.0001 0.5C9.26719 0.5 8.53383 0.783184 7.97586 1.34124L2.32022 7.12807C1.24224 8.20615 0.605495 8.8493 0.290393 9.72294C-0.0184248 10.5791 0.000216309 11.5788 0.000216309 13.3613V17.6415C0.000216309 19.2314 1.28836 20.5 2.85872 20.5H5.71444L5.71305 14.7843C5.71203 13.2138 6.98714 11.9286 8.57435 11.9286H11.4259C13.0131 11.9286 14.2882 13.2138 14.2872 14.7843L14.2858 20.5H17.1415C18.7118 20.5 20 19.2314 20 17.6415V13.3613C20 11.5788 20.0186 10.5791 19.7098 9.72294C19.3947 8.8493 18.758 8.20615 17.68 7.12807L12.0244 1.34124C11.4664 0.783184 10.733 0.5 10.0001 0.5ZM8.57435 13.3585C7.78732 13.3585 7.14274 13.9805 7.143 14.7843L7.14443 20.5H12.8559L12.8573 14.7843C12.8576 13.9805 12.213 13.3585 11.426 13.3585H8.57435Z" fill="#5282FF"/>
</svg>
