<svg width="10" height="10" viewBox="0 0 10 10" fill="none" xmlns="http://www.w3.org/2000/svg">
<path d="M9.83496 8.60938L6.2207 4.99512L9.82617 1.38965C10.0322 1.18359 10.0322 0.849609 9.82617 0.643555L9.34961 0.166992C9.14356 -0.0390625 8.80957 -0.0390625 8.60352 0.166992L4.99902 3.77344L1.39648 0.170898C1.19043 -0.0351562 0.856445 -0.0351562 0.650391 0.170898L0.173828 0.647461C-0.0322266 0.853516 -0.0322266 1.1875 0.173828 1.39355L3.77637 4.99609L0.165039 8.60742C-0.0410156 8.81348 -0.0410156 9.14746 0.165039 9.35352L0.641602 9.83008C0.847656 10.0361 1.18164 10.0361 1.3877 9.83008L4.99902 6.21875L8.61328 9.83301C8.81934 10.0391 9.15332 10.0391 9.35938 9.83301L9.83594 9.35645C10.041 9.14941 10.041 8.81543 9.83496 8.60938Z" fill="#4F5A6E"/>
</svg>
