<svg width="18" height="20" viewBox="0 0 18 20" fill="none" xmlns="http://www.w3.org/2000/svg">
<path d="M16.7837 9.48865C16.5185 9.22348 16.1966 9.09099 15.8177 9.09099H15.3634V6.36356C15.3634 4.62117 14.7385 3.12509 13.4885 1.87508C12.2385 0.625028 10.7426 0 8.99996 0C7.25736 0 5.76114 0.625028 4.51128 1.87503C3.26123 3.12509 2.6364 4.62112 2.6364 6.36356V9.09099H2.18192C1.80326 9.09099 1.48122 9.22348 1.21604 9.48865C0.950867 9.75363 0.818329 10.0757 0.818329 10.4547V18.6364C0.818329 19.0151 0.950917 19.3372 1.21604 19.6024C1.48122 19.8674 1.80326 20 2.18192 20H15.818C16.197 20 16.5188 19.8675 16.784 19.6024C17.049 19.3372 17.1817 19.0151 17.1817 18.6364V10.4545C17.1819 10.0758 17.049 9.75383 16.7837 9.48865ZM12.6362 9.09099H5.36367V6.36356C5.36367 5.35983 5.71885 4.50276 6.42905 3.79266C7.13935 3.08245 7.99627 2.72743 9.00011 2.72743C10.004 2.72743 10.8608 3.0824 11.5711 3.79266C12.2811 4.50271 12.6362 5.35983 12.6362 6.36356V9.09099Z" fill="#4F5A6E"/>
</svg>
