<svg width="18" height="20" viewBox="0 0 18 20" fill="none" xmlns="http://www.w3.org/2000/svg">
<path d="M16.7836 9.48865C16.5184 9.22348 16.1966 9.09099 15.8176 9.09099H15.3633V6.36356C15.3633 4.62117 14.7385 3.12509 13.4885 1.87508C12.2385 0.625028 10.7426 0 8.99993 0C7.25733 0 5.76111 0.625028 4.51125 1.87503C3.2612 3.12509 2.63637 4.62112 2.63637 6.36356V9.09099H2.18189C1.80323 9.09099 1.48119 9.22348 1.21601 9.48865C0.950836 9.75363 0.818298 10.0757 0.818298 10.4547V18.6364C0.818298 19.0151 0.950886 19.3372 1.21601 19.6024C1.48119 19.8674 1.80323 20 2.18189 20H15.818C16.1969 20 16.5187 19.8675 16.784 19.6024C17.0489 19.3372 17.1817 19.0151 17.1817 18.6364V10.4545C17.1819 10.0758 17.0489 9.75383 16.7836 9.48865ZM12.6362 9.09099H5.36364V6.36356C5.36364 5.35983 5.71882 4.50276 6.42902 3.79266C7.13932 3.08245 7.99624 2.72743 9.00008 2.72743C10.004 2.72743 10.8607 3.0824 11.5711 3.79266C12.2811 4.50271 12.6362 5.35983 12.6362 6.36356V9.09099Z" fill="#4F5A6E"/>
</svg>
