<?xml version="1.0" encoding="utf-8"?>
<!-- Generator: Adobe Illustrator 24.3.0, SVG Export Plug-In . SVG Version: 6.00 Build 0)  -->
<svg version="1.1" id="Слой_12" xmlns="http://www.w3.org/2000/svg" xmlns:xlink="http://www.w3.org/1999/xlink" x="0px"
	 y="0px" viewBox="0 0 309 400" style="enable-background:new 0 0 309 400;" xml:space="preserve">
<style type="text/css">
	.st0{fill:#5282FF;}
</style>
<path class="st0" d="M295,120c-10.1-14.3-30.7-32.7-44-43c-11-10-45.3-36-90.1-70.3c-0.7-0.5-3.2-2.7-5.7-2.7c-0.1,0-0.1,0-0.2,0
	c-2.6,0.1-5.2,2.2-5.9,2.7C104.3,41,70,67,59,77c-13.3,10.3-33.9,28.7-44,43C1.9,138.5,1,156,1,170c0,18.1,0-6.8,0,38v22
	c0,84.1,70.4,141,154.5,141c0.2,0,0.3,0,0.5,0h153V226c0-0.8,0-1.1,0-1.1v-22.8c0-36.7,0-14.8,0-32.1C309,156,308.1,138.5,295,120z
	 M156,301c-0.2,0-0.3,0-0.5,0C110,301,71,263.5,71,218v-2c0-2.9,0-8,0-8v-19c0.5-8.6-2.8-29.2,20-46c10.8-8.8,63.8-52,64-52
	s53.2,43.2,64,52c15.9,11.8,19.4,29.2,20,38.9v7.1c0,0-0.2,26.9,0,27v85H156z"/>
</svg>
