<svg width="8" height="14" viewBox="0 0 8 14" fill="none" xmlns="http://www.w3.org/2000/svg">
<path d="M0.66863 0.568904L0.221885 0.998873C0.0823671 1.13419 0.00550546 1.31422 0.00550547 1.50664C0.00550548 1.69894 0.0823672 1.87919 0.221885 2.01451L5.28308 6.91929L0.21627 11.8297C0.0767516 11.9648 -5.6332e-08 12.1451 -4.82493e-08 12.3374C-4.01666e-08 12.5297 0.0767516 12.71 0.21627 12.8453L0.660262 13.2753C0.948988 13.5554 1.4193 13.5554 1.70802 13.2753L7.76237 7.42887C7.90177 7.29376 8 7.11373 8 6.91972L8 6.91747C8 6.72506 7.90166 6.54503 7.76237 6.40992L1.72443 0.568904C1.58502 0.433585 1.39364 0.359308 1.19521 0.359096C0.996668 0.359096 0.807928 0.433585 0.66863 0.568904Z" fill="#5282FF"/>
</svg>
