<svg width="14" height="14" viewBox="0 0 14 14" fill="none" xmlns="http://www.w3.org/2000/svg">
<path d="M9.70019 7.40449C9.09316 7.4168 9.0166 7.7586 8.34668 8.08809C7.67675 8.41758 6.99863 8.37793 6.99863 8.37793V8.3793C6.96445 8.3793 6.24121 8.40391 5.65332 8.08946C5.06543 7.775 4.90683 7.41817 4.2998 7.40586C2.57441 7.37031 0.977535 10.9332 0.977535 12.9566C0.963863 14.0914 3.40976 13.9834 3.40976 13.9834L10.5902 13.982C10.5902 13.982 13.0361 14.09 13.0225 12.9553C13.0225 10.9318 11.4256 7.36895 9.70019 7.40449ZM6.9125 6.74278C7.83671 6.74278 8.63652 6.41192 9.29003 5.75703C9.94355 5.10352 10.2758 4.30371 10.2758 3.37949C10.2758 2.45527 9.94492 1.65547 9.29003 1.00195C8.63652 0.348438 7.83671 0.0175781 6.9125 0.0175781C5.98828 0.0175781 5.18847 0.348438 4.53496 1.00332C3.88144 1.65684 3.54921 2.45664 3.54921 3.38086C3.54921 4.30508 3.88007 5.10488 4.53496 5.7584C5.18984 6.41192 5.98964 6.74278 6.9125 6.74278V6.74278Z" fill="white"/>
</svg>
