<svg width="20" height="20" viewBox="0 0 20 20" fill="none" xmlns="http://www.w3.org/2000/svg">
<path d="M9.99913 0C4.48556 0 0 4.48629 0 10.0004C0 15.5141 4.48556 20 9.99913 20C10.9187 20 11.6629 19.2543 11.6629 18.3358C11.6629 17.4166 10.9188 16.6715 9.99913 16.6715C6.32078 16.6715 3.32846 13.6786 3.32846 10.0004C3.32846 6.32129 6.32078 3.32846 9.99913 3.32846C13.6773 3.32846 16.6706 6.32135 16.6706 10.0004C16.6706 10.9195 17.416 11.6646 18.3351 11.6646C19.2547 11.6646 19.9992 10.9195 19.9992 10.0004C19.9992 4.48629 15.5138 0 9.99913 0Z" fill="#4F5A6E"/>
<path d="M11.8409 9.98272C11.8418 9.95397 11.8491 9.92742 11.8491 9.89873C11.8491 8.82167 10.9761 7.94727 9.89771 7.94727C8.81998 7.94727 7.94727 8.82167 7.94727 9.89873C7.94727 10.9767 8.81998 11.8501 9.89771 11.8501C9.93328 11.8501 9.96524 11.8414 10.0008 11.8396L15.6093 16.5387C15.8678 16.7564 16.2549 16.762 16.5198 16.5341C16.8156 16.2812 16.8503 15.8364 16.5974 15.5406L11.8409 9.98272Z" fill="#4F5A6E"/>
</svg>
