<svg width="20" height="20" viewBox="0 0 20 20" fill="none" xmlns="http://www.w3.org/2000/svg">
<path d="M10 0C4.47715 0 0 4.47715 0 10C0 15.5229 4.47715 20 10 20C15.5229 20 20 15.5229 20 10C20 4.47715 15.5229 0 10 0ZM5.91477 16.292C6.13168 15.6937 6.25 15.0481 6.25 14.375C6.25 11.9463 4.71074 9.87711 2.55453 9.08973C2.75395 7.43106 3.49699 5.89641 4.69668 4.69668C6.11328 3.28016 7.99668 2.5 10 2.5C12.0033 2.5 13.8867 3.28016 15.3033 4.69668C16.5031 5.89641 17.2461 7.43106 17.4455 9.08973C15.2893 9.87711 13.75 11.9463 13.75 14.375C13.75 15.0482 13.8684 15.6938 14.0853 16.292C12.8801 17.078 11.4726 17.5 10 17.5C8.52746 17.5 7.11996 17.078 5.91477 16.292ZM10.7764 12.5195C11.0475 12.5877 11.25 12.8335 11.25 13.125V14.375C11.25 14.7188 10.9688 15 10.625 15H9.375C9.03125 15 8.75 14.7188 8.75 14.375V13.125C8.75 12.8335 8.9525 12.5877 9.22355 12.5195L9.6875 3.75H10.3125L10.7764 12.5195Z" fill="#4F5A6E"/>
</svg>
