<svg width="20" height="5" viewBox="0 0 20 5" fill="none" xmlns="http://www.w3.org/2000/svg">
<path d="M4.96094 2.48047C4.96094 3.85039 3.85039 4.96094 2.48047 4.96094C1.11055 4.96094 0 3.85039 0 2.48047C0 1.11055 1.11055 0 2.48047 0C3.85039 0 4.96094 1.11055 4.96094 2.48047ZM12.4609 2.48047C12.4609 3.85039 11.3504 4.96094 9.98047 4.96094C8.61055 4.96094 7.5 3.85039 7.5 2.48047C7.5 1.11055 8.61055 0 9.98047 0C11.3504 0 12.4609 1.11055 12.4609 2.48047ZM19.9609 2.5C19.9609 3.86992 18.8504 4.98047 17.4805 4.98047C16.1105 4.98047 15 3.86992 15 2.5C15 1.13008 16.1105 0.0195312 17.4805 0.0195312C18.8504 0.0195312 19.9609 1.13008 19.9609 2.5Z" fill="#4F5A6E"/>
</svg>
