<svg width="17" height="21" viewBox="0 0 17 21" fill="none" xmlns="http://www.w3.org/2000/svg">
<path d="M16.1441 13.7281H14.826V7.43339C14.826 4.34286 12.5903 1.76943 9.63731 1.23741C9.64325 1.20451 9.64324 1.17165 9.64324 1.13578C9.64324 0.511083 9.13513 0 8.50449 0C7.87381 0 7.36574 0.508114 7.36574 1.13578C7.36574 1.16864 7.36574 1.20154 7.37172 1.23741C4.42169 1.76943 2.18001 4.34286 2.18001 7.43339V13.7281H0.861846C0.628711 13.7281 0.44043 13.9163 0.44043 14.1494V16.3911C0.44043 16.6242 0.628711 16.8126 0.861846 16.8126H16.1381C16.3713 16.8126 16.5596 16.6242 16.5596 16.3911V14.1494C16.5655 13.9163 16.3743 13.7281 16.1441 13.7281Z" fill="black"/>
<path d="M8.43284 20.9999C9.7868 20.9999 10.8837 19.7625 10.8837 18.2292H5.98193C5.98193 19.7625 7.07884 20.9999 8.43284 20.9999Z" fill="black"/>
</svg>
