<svg width="20" height="30" viewBox="0 0 20 30" fill="none" xmlns="http://www.w3.org/2000/svg">
<path d="M8.52345 21.1313C6.19775 20.8887 4.10079 20.3159 2.30546 18.9118C2.08269 18.7371 1.8527 18.5687 1.64941 18.3736C0.863602 17.6189 0.784424 16.7545 1.40622 15.8637C1.93816 15.1015 2.83111 14.8976 3.75926 15.3353C3.93898 15.4201 4.11022 15.526 4.27423 15.6397C7.62013 17.9387 12.2165 18.0022 15.575 15.7431C15.9077 15.488 16.2634 15.28 16.6756 15.1738C17.4772 14.968 18.2246 15.2624 18.6548 15.9637C19.1462 16.7645 19.1399 17.5463 18.5344 18.1681C17.6057 19.1214 16.4887 19.811 15.2476 20.2924C14.0741 20.7473 12.7887 20.9764 11.5165 21.1285C11.7085 21.3374 11.799 21.4401 11.919 21.5608C13.6465 23.2964 15.3815 25.0248 17.1033 26.7658C17.6899 27.359 17.8124 28.0945 17.4894 28.7845C17.1363 29.5386 16.3457 30.0347 15.5706 29.9816C15.0795 29.9477 14.6965 29.7032 14.3562 29.3605C13.0526 28.0487 11.7245 26.7611 10.4473 25.4245C10.0756 25.0358 9.89681 25.1093 9.56879 25.4468C8.25732 26.7969 6.92449 28.1263 5.58381 29.4481C4.9818 30.0416 4.26543 30.1485 3.56728 29.8094C2.82514 29.4497 2.3529 28.6922 2.38935 27.9309C2.41449 27.4159 2.66773 27.0225 3.0212 26.6697C4.73076 24.9626 6.4356 23.2512 8.14107 21.5413C8.25387 21.4276 8.35912 21.3069 8.52345 21.1313Z" fill="#4F5A6E"/>
<path d="M9.94016 15.1849C5.79116 15.1708 2.38902 11.7313 2.41321 7.57567C2.43709 3.37421 5.84143 -0.0115955 10.0313 2.98477e-05C14.2296 0.011341 17.5994 3.44585 17.5783 7.69098C17.557 11.8381 14.1313 15.1994 9.94016 15.1849ZM13.7109 7.58573C13.7036 5.52238 12.0604 3.87975 10.0011 3.87787C7.92457 3.87567 6.26655 5.54815 6.28257 7.63034C6.29797 9.68583 7.95536 11.3168 10.0203 11.3093C12.0789 11.3021 13.7178 9.64875 13.7109 7.58573Z" fill="#4F5A6E"/>
</svg>
