<svg width="21" height="20" viewBox="0 0 21 20" fill="none" xmlns="http://www.w3.org/2000/svg">
<path d="M20.6745 17.2368L13.0687 9.99021L20.656 2.76127C21.0897 2.34813 21.0897 1.6785 20.656 1.26536L19.6532 0.309854C19.2195 -0.103285 18.5167 -0.103285 18.0831 0.309854L10.4978 7.54075L2.91666 0.317686C2.48304 -0.0954525 1.78021 -0.0954525 1.34659 0.317686L0.343711 1.27319C-0.0899094 1.68633 -0.0899094 2.35596 0.343711 2.7691L7.92487 9.99217L0.325215 17.2329C-0.108405 17.646 -0.108405 18.3156 0.325215 18.7288L1.32809 19.6843C1.76171 20.0974 2.46454 20.0974 2.89816 19.6843L10.4978 12.4436L18.1036 19.6901C18.5373 20.1033 19.2401 20.1033 19.6737 19.6901L20.6766 18.7346C21.1081 18.3195 21.1081 17.6499 20.6745 17.2368Z" fill="#E63757"/>
</svg>
