<svg width="20" height="18" viewBox="0 0 20 18" fill="none" xmlns="http://www.w3.org/2000/svg">
<path d="M19.7367 5.88184C19.5454 5.67199 19.2746 5.55229 18.9906 5.55229H1.00938C0.725451 5.55229 0.454533 5.67199 0.263264 5.88184C0.0719942 6.09168 -0.0219902 6.37248 0.0043575 6.65521L0.963752 16.9607C1.01209 17.4797 1.44754 17.8765 1.96877 17.8765H18.0312C18.5524 17.8765 18.9878 17.4796 19.0362 16.9607L19.9956 6.65521C20.0219 6.3725 19.9279 6.09168 19.7367 5.88184ZM13.3666 15.7628C13.3659 15.7627 13.3653 15.7627 13.3646 15.7628H6.63545C6.07799 15.7628 5.6261 15.3108 5.6261 14.7534C5.6261 13.3827 6.74123 12.2676 8.11196 12.2676H8.83637C8.09135 11.8559 7.58547 11.0624 7.58547 10.1527C7.58547 8.82139 8.66862 7.73814 10.0001 7.73814C11.3315 7.73814 12.4147 8.82129 12.4147 10.1527C12.4147 11.0624 11.9088 11.8559 11.1638 12.2676H11.8882C13.2309 12.2676 14.3284 13.3378 14.3726 14.67C14.3748 14.6975 14.376 14.7254 14.376 14.7534C14.3759 15.3109 13.924 15.7628 13.3666 15.7628ZM18.0581 3.67314C18.0581 4.09133 17.7191 4.43016 17.3011 4.43016H2.69895C2.28086 4.43016 1.94194 4.09131 1.94194 3.67314C1.94194 3.25498 2.28088 2.91613 2.69895 2.91613H17.3011C17.7192 2.91613 18.0581 3.25498 18.0581 3.67314ZM16.0596 0.880547C16.0596 1.29873 15.7206 1.63756 15.3025 1.63756H4.69748C4.2794 1.63756 3.94047 1.29871 3.94047 0.880547C3.94047 0.462383 4.27942 0.123535 4.69748 0.123535H15.3024C15.7206 0.123535 16.0596 0.462383 16.0596 0.880547H16.0596Z" fill="#4F5A6E"/>
</svg>
