<svg width="18" height="12" viewBox="0 0 18 12" fill="none" xmlns="http://www.w3.org/2000/svg">
<path d="M17.7184 1.73198L16.8605 0.87417C16.4896 0.503271 15.8885 0.503271 15.5176 0.87417L8.99961 7.39214L2.47988 0.872412C2.10898 0.501514 1.50781 0.501514 1.13691 0.872412L0.280859 1.73022C-0.0900391 2.10112 -0.0900391 2.7023 0.280859 3.07319L7.42813 10.2205C7.44219 10.2363 7.45449 10.2503 7.47031 10.2662L8.32812 11.124C8.38789 11.1837 8.45469 11.2347 8.52324 11.2751C8.88711 11.4896 9.36348 11.4421 9.67637 11.1292L10.5342 10.2714C10.5623 10.2433 10.5887 10.2134 10.6133 10.1818L17.7184 3.07319C18.0893 2.7023 18.0893 2.10288 17.7184 1.73198Z" fill="#4F5A6E"/>
</svg>
