<svg width="174" height="53" viewBox="0 0 174 53" fill="none" xmlns="http://www.w3.org/2000/svg">
<path d="M65.962 25L59.893 18.322V25H56.575V10.09H59.893V16.327L64.954 10.09H69.049L63.169 17.251L70.246 25H65.962ZM73.8491 20.695C74.7031 21.577 75.7321 22.018 76.9361 22.018C78.1401 22.018 79.1621 21.577 80.0021 20.695C80.8421 19.813 81.2621 18.763 81.2621 17.545C81.2621 16.327 80.8421 15.277 80.0021 14.395C79.1621 13.513 78.1401 13.072 76.9361 13.072C75.7321 13.072 74.7031 13.513 73.8491 14.395C73.0091 15.277 72.5891 16.327 72.5891 17.545C72.5891 18.763 73.0091 19.813 73.8491 20.695ZM82.3751 22.984C80.8771 24.496 79.0641 25.252 76.9361 25.252C74.8081 25.252 72.9881 24.503 71.4761 23.005C69.9781 21.493 69.2291 19.673 69.2291 17.545C69.2291 15.417 69.9781 13.604 71.4761 12.106C72.9881 10.594 74.8081 9.838 76.9361 9.838C79.0641 9.838 80.8771 10.594 82.3751 12.106C83.8871 13.618 84.6431 15.431 84.6431 17.545C84.6431 19.659 83.8871 21.472 82.3751 22.984ZM86.9471 25V10.09H90.2861V15.928H96.2921V10.09H99.6311V25H96.2921V19.099H90.2861V25H86.9471ZM105.467 25V13.282H101.666V10.09H112.67V13.282H108.827V25H105.467ZM123.514 11.56C124.522 12.54 125.026 13.751 125.026 15.193C125.026 16.635 124.522 17.846 123.514 18.826C122.52 19.792 121.274 20.275 119.776 20.275H118.054V25H114.715V10.09H119.776C121.274 10.09 122.52 10.58 123.514 11.56ZM121.792 15.193C121.792 14.633 121.596 14.171 121.204 13.807C120.826 13.429 120.336 13.24 119.734 13.24H118.054V17.146H119.734C120.322 17.146 120.812 16.957 121.204 16.579C121.596 16.201 121.792 15.739 121.792 15.193ZM130.943 20.695C131.797 21.577 132.826 22.018 134.03 22.018C135.234 22.018 136.256 21.577 137.096 20.695C137.936 19.813 138.356 18.763 138.356 17.545C138.356 16.327 137.936 15.277 137.096 14.395C136.256 13.513 135.234 13.072 134.03 13.072C132.826 13.072 131.797 13.513 130.943 14.395C130.103 15.277 129.683 16.327 129.683 17.545C129.683 18.763 130.103 19.813 130.943 20.695ZM139.469 22.984C137.971 24.496 136.158 25.252 134.03 25.252C131.902 25.252 130.082 24.503 128.57 23.005C127.072 21.493 126.323 19.673 126.323 17.545C126.323 15.417 127.072 13.604 128.57 12.106C130.082 10.594 131.902 9.838 134.03 9.838C136.158 9.838 137.971 10.594 139.469 12.106C140.981 13.618 141.737 15.431 141.737 17.545C141.737 19.659 140.981 21.472 139.469 22.984ZM144.978 19.519V10.09H156.045V25H152.685V13.282H148.338V19.918C148.338 21.612 147.946 22.921 147.162 23.845C146.392 24.769 145.286 25.238 143.844 25.252C143.186 25.224 142.689 25.189 142.353 25.147V22.06C142.563 22.102 142.899 22.123 143.361 22.123C143.907 22.123 144.313 21.941 144.579 21.577C144.845 21.199 144.978 20.513 144.978 19.519ZM162.556 15.298H164.95C166.42 15.298 167.638 15.753 168.604 16.663C169.57 17.573 170.053 18.735 170.053 20.149C170.053 21.549 169.563 22.711 168.583 23.635C167.617 24.545 166.406 25 164.95 25H159.196V10.09H162.556V15.298ZM162.556 21.913H164.908C165.482 21.913 165.937 21.766 166.273 21.472C166.623 21.164 166.798 20.723 166.798 20.149C166.798 19.575 166.623 19.141 166.273 18.847C165.937 18.539 165.482 18.385 164.908 18.385H162.556V21.913ZM65.374 38.56C66.382 39.54 66.886 40.751 66.886 42.193C66.886 43.635 66.382 44.846 65.374 45.826C64.38 46.792 63.134 47.275 61.636 47.275H59.914V52H56.575V37.09H61.636C63.134 37.09 64.38 37.58 65.374 38.56ZM63.652 42.193C63.652 41.633 63.456 41.171 63.064 40.807C62.686 40.429 62.196 40.24 61.594 40.24H59.914V44.146H61.594C62.182 44.146 62.672 43.957 63.064 43.579C63.456 43.201 63.652 42.739 63.652 42.193ZM69.0232 52V37.09H78.4732V40.282H72.3622V42.949H77.2132V46.141H72.3622V48.808H78.4732V52H69.0232ZM87.6652 52.252C85.4112 52.252 83.5422 51.51 82.0582 50.026C80.5742 48.542 79.8322 46.715 79.8322 44.545C79.8322 42.375 80.5742 40.548 82.0582 39.064C83.5422 37.58 85.4112 36.838 87.6652 36.838C89.3312 36.838 90.8502 37.335 92.2222 38.329C93.6082 39.309 94.5042 40.604 94.9102 42.214H91.2772C90.9552 41.528 90.4652 41.003 89.8072 40.639C89.1492 40.261 88.4352 40.072 87.6652 40.072C86.3212 40.072 85.2362 40.499 84.4102 41.353C83.5982 42.207 83.1922 43.271 83.1922 44.545C83.1922 45.819 83.5982 46.883 84.4102 47.737C85.2362 48.591 86.3212 49.018 87.6652 49.018C88.4352 49.018 89.1492 48.836 89.8072 48.472C90.4652 48.094 90.9552 47.562 91.2772 46.876H94.9102C94.5042 48.486 93.6082 49.788 92.2222 50.782C90.8502 51.762 89.3312 52.252 87.6652 52.252ZM97.7207 52.105V48.997C98.0707 49.053 98.5327 49.081 99.1067 49.081C100.003 49.081 100.661 48.808 101.081 48.262L95.3057 37.09H99.1277L102.992 44.566L106.667 37.09H110.489L104.945 48.199C104.217 49.641 103.44 50.677 102.614 51.307C101.788 51.937 100.78 52.252 99.5897 52.252C98.9177 52.252 98.2947 52.203 97.7207 52.105ZM120.704 38.56C121.712 39.54 122.216 40.751 122.216 42.193C122.216 43.635 121.712 44.846 120.704 45.826C119.71 46.792 118.464 47.275 116.966 47.275H115.244V52H111.905V37.09H116.966C118.464 37.09 119.71 37.58 120.704 38.56ZM118.982 42.193C118.982 41.633 118.786 41.171 118.394 40.807C118.016 40.429 117.526 40.24 116.924 40.24H115.244V44.146H116.924C117.512 44.146 118.002 43.957 118.394 43.579C118.786 43.201 118.982 42.739 118.982 42.193ZM131.367 52.252C129.113 52.252 127.244 51.51 125.76 50.026C124.276 48.542 123.534 46.715 123.534 44.545C123.534 42.375 124.276 40.548 125.76 39.064C127.244 37.58 129.113 36.838 131.367 36.838C133.033 36.838 134.552 37.335 135.924 38.329C137.31 39.309 138.206 40.604 138.612 42.214H134.979C134.657 41.528 134.167 41.003 133.509 40.639C132.851 40.261 132.137 40.072 131.367 40.072C130.023 40.072 128.938 40.499 128.112 41.353C127.3 42.207 126.894 43.271 126.894 44.545C126.894 45.819 127.3 46.883 128.112 47.737C128.938 48.591 130.023 49.018 131.367 49.018C132.137 49.018 132.851 48.836 133.509 48.472C134.167 48.094 134.657 47.562 134.979 46.876H138.612C138.206 48.486 137.31 49.788 135.924 50.782C134.552 51.762 133.033 52.252 131.367 52.252ZM144.478 47.695C145.332 48.577 146.361 49.018 147.565 49.018C148.769 49.018 149.791 48.577 150.631 47.695C151.471 46.813 151.891 45.763 151.891 44.545C151.891 43.327 151.471 42.277 150.631 41.395C149.791 40.513 148.769 40.072 147.565 40.072C146.361 40.072 145.332 40.513 144.478 41.395C143.638 42.277 143.218 43.327 143.218 44.545C143.218 45.763 143.638 46.813 144.478 47.695ZM153.004 49.984C151.506 51.496 149.693 52.252 147.565 52.252C145.437 52.252 143.617 51.503 142.105 50.005C140.607 48.493 139.858 46.673 139.858 44.545C139.858 42.417 140.607 40.604 142.105 39.106C143.617 37.594 145.437 36.838 147.565 36.838C149.693 36.838 151.506 37.594 153.004 39.106C154.516 40.618 155.272 42.431 155.272 44.545C155.272 46.659 154.516 48.472 153.004 49.984ZM157.576 52V37.09H163.183C164.401 37.09 165.444 37.524 166.312 38.392C167.18 39.246 167.614 40.289 167.614 41.521C167.614 42.515 167.257 43.369 166.543 44.083C167.187 44.419 167.698 44.895 168.076 45.511C168.468 46.127 168.664 46.827 168.664 47.611C168.664 48.843 168.23 49.886 167.362 50.74C166.494 51.58 165.416 52 164.128 52H157.576ZM160.915 48.934H163.855C164.303 48.934 164.674 48.794 164.968 48.514C165.262 48.22 165.409 47.863 165.409 47.443C165.409 47.023 165.255 46.673 164.947 46.393C164.653 46.099 164.282 45.952 163.834 45.952H160.915V48.934ZM160.915 43.117H162.805C163.253 43.117 163.624 42.977 163.918 42.697C164.212 42.417 164.359 42.067 164.359 41.647C164.359 41.227 164.212 40.87 163.918 40.576C163.624 40.282 163.253 40.135 162.805 40.135H160.915V43.117Z" fill="white"/>
<path d="M40.0909 16.1199C38.7136 14.1327 35.9045 11.5757 34.0909 10.1444C32.5909 8.75477 27.9136 5.14169 21.8045 0.375204C21.7091 0.305722 21.3682 0 21.0273 0C21.0136 0 21.0136 0 21 0C20.6455 0.0138965 20.2909 0.305722 20.1955 0.375204C14.0864 5.14169 9.40909 8.75477 7.90909 10.1444C6.09546 11.5757 3.28636 14.1327 1.90909 16.1199C0.122727 18.6907 0 21.1226 0 23.0681C0 25.5834 0 22.1232 0 28.3488V31.406C0 43.0929 9.6 51 21.0682 51C21.0955 51 21.1091 51 21.1364 51H42V30.8501C42 30.739 42 30.6973 42 30.6973V27.5289C42 22.4289 42 25.4722 42 23.0681C42 21.1226 41.8773 18.6907 40.0909 16.1199ZM21.1364 41.2725C21.1091 41.2725 21.0955 41.2725 21.0682 41.2725C14.8636 41.2725 9.54545 36.0613 9.54545 29.7384V29.4605C9.54545 29.0575 9.54545 28.3488 9.54545 28.3488V25.7084C9.61364 24.5134 9.16364 21.6507 12.2727 19.3161C13.7455 18.0932 20.9727 12.0899 21 12.0899C21.0273 12.0899 28.2545 18.0932 29.7273 19.3161C31.8955 20.9559 32.3727 23.3738 32.4545 24.7218V25.7084C32.4545 25.7084 32.4273 29.4466 32.4545 29.4605V41.2725H21.1364Z" fill="white"/>
</svg>
