<svg width="30" height="18" viewBox="0 0 30 18" fill="none" xmlns="http://www.w3.org/2000/svg">
<path d="M29.841 15.8999C29.8046 15.8216 29.7708 15.7566 29.7393 15.7046C29.2188 14.7672 28.2242 13.6165 26.7559 12.2524L26.7249 12.2211L26.7094 12.2058L26.6937 12.1901H26.6779C26.0116 11.5549 25.5896 11.1278 25.4129 10.9091C25.0896 10.4925 25.0171 10.0709 25.1938 9.64368C25.3187 9.3209 25.7876 8.63923 26.5996 7.59774C27.0267 7.04578 27.365 6.6034 27.6148 6.27012C29.4164 3.87496 30.1975 2.34443 29.9579 1.67791L29.8648 1.52216C29.8023 1.42838 29.6409 1.3426 29.3809 1.26437C29.1202 1.1863 28.7871 1.17339 28.3809 1.22541L23.8825 1.25649C23.8096 1.23067 23.7056 1.23307 23.57 1.26437C23.4346 1.29566 23.3669 1.31136 23.3669 1.31136L23.2886 1.35048L23.2265 1.39747C23.1744 1.42855 23.1171 1.4832 23.0546 1.56133C22.9924 1.63918 22.9403 1.73054 22.8987 1.83465C22.409 3.09465 21.8522 4.26613 21.2272 5.34904C20.8419 5.99477 20.4881 6.55438 20.1649 7.02822C19.8422 7.50189 19.5714 7.85087 19.3529 8.07458C19.1341 8.2985 18.9366 8.47789 18.7592 8.61341C18.5821 8.74898 18.4469 8.80626 18.3533 8.7853C18.2595 8.76435 18.1711 8.74356 18.0875 8.72277C17.9418 8.629 17.8246 8.50147 17.7363 8.34008C17.6475 8.17869 17.5878 7.97556 17.5565 7.73084C17.5255 7.48597 17.5071 7.27534 17.5018 7.09825C17.497 6.92137 17.4992 6.67119 17.5098 6.34841C17.5206 6.02546 17.5255 5.80695 17.5255 5.69239C17.5255 5.29663 17.5332 4.86711 17.5487 4.40372C17.5644 3.94034 17.5772 3.57319 17.5878 3.30271C17.5984 3.03195 17.6034 2.7455 17.6034 2.44351C17.6034 2.14151 17.585 1.90468 17.5487 1.73278C17.5128 1.56111 17.4577 1.39446 17.3851 1.23291C17.312 1.07152 17.2051 0.946673 17.0649 0.858044C16.9243 0.769525 16.7496 0.699279 16.5416 0.647087C15.9897 0.522187 15.2868 0.454621 14.4328 0.444117C12.496 0.423328 11.2516 0.548392 10.6997 0.819146C10.481 0.933542 10.2831 1.08985 10.1062 1.28756C9.9187 1.51674 9.89255 1.6418 10.0279 1.66237C10.6528 1.75598 11.0952 1.9799 11.3555 2.33392L11.4493 2.52152C11.5223 2.65687 11.5952 2.8965 11.6681 3.24007C11.7409 3.58364 11.7879 3.9637 11.8086 4.38004C11.8606 5.14032 11.8606 5.79114 11.8086 6.33254C11.7565 6.87416 11.7072 7.2958 11.6602 7.59779C11.6133 7.89978 11.543 8.1445 11.4493 8.33188C11.3555 8.51931 11.2931 8.63387 11.2618 8.67545C11.2306 8.71703 11.2045 8.74323 11.1838 8.75352C11.0485 8.80538 10.9077 8.8318 10.762 8.8318C10.6161 8.8318 10.4392 8.75882 10.231 8.61297C10.0228 8.46712 9.80677 8.26677 9.58285 8.01161C9.35892 7.75639 9.10639 7.39975 8.82513 6.94161C8.54409 6.48348 8.25249 5.94203 7.9505 5.31725L7.70065 4.86415C7.54445 4.57267 7.33109 4.14823 7.06033 3.59124C6.78942 3.03403 6.54995 2.49504 6.34179 1.97438C6.25858 1.75571 6.13357 1.58923 5.96698 1.47467L5.8888 1.42767C5.83683 1.38609 5.7534 1.34194 5.63894 1.29489C5.52433 1.2479 5.40474 1.2142 5.27967 1.19346L0.999858 1.22454C0.562516 1.22454 0.265775 1.32362 0.109527 1.5215L0.0469949 1.6151C0.0157561 1.66724 0 1.75051 0 1.86512C0 1.97969 0.0312387 2.12029 0.0937709 2.28677C0.718545 3.75515 1.39797 5.17129 2.13206 6.5354C2.86614 7.89951 3.50404 8.99834 4.04539 9.8309C4.58684 10.6641 5.13874 11.4504 5.70109 12.1895C6.26345 12.9289 6.63568 13.4027 6.81781 13.6109C7.00015 13.8194 7.14338 13.9754 7.24749 14.0795L7.63806 14.4543C7.88797 14.7043 8.25496 15.0036 8.73918 15.3524C9.22352 15.7014 9.75972 16.0449 10.3481 16.3836C10.9365 16.7218 11.6211 16.9978 12.4022 17.2112C13.1831 17.4248 13.9432 17.5105 14.6826 17.4692H16.4789C16.8433 17.4377 17.1193 17.3232 17.3069 17.1254L17.369 17.0472C17.4108 16.985 17.4499 16.8885 17.486 16.7585C17.5226 16.6284 17.5407 16.485 17.5407 16.329C17.5301 15.8813 17.5641 15.4778 17.6421 15.1186C17.7199 14.7595 17.8086 14.4888 17.9079 14.3064C18.0071 14.1242 18.119 13.9705 18.2436 13.8459C18.3684 13.721 18.4574 13.6453 18.5096 13.6193C18.5614 13.5931 18.6028 13.5753 18.6341 13.5646C18.884 13.4813 19.1781 13.562 19.5169 13.8069C19.8554 14.0516 20.1728 14.3538 20.4698 14.7129C20.7666 15.0723 21.1232 15.4756 21.5396 15.9233C21.9563 16.3711 22.3207 16.704 22.633 16.923L22.9452 17.1105C23.1538 17.2355 23.4246 17.3501 23.7578 17.4542C24.0905 17.5583 24.382 17.5843 24.6323 17.5323L28.6308 17.4699C29.0263 17.4699 29.334 17.4044 29.5523 17.2745C29.771 17.1443 29.901 17.0009 29.9429 16.845C29.9847 16.6888 29.9869 16.5117 29.9508 16.3136C29.9138 16.1161 29.8773 15.9779 29.841 15.8999Z" fill="#4F5A6E"/>
</svg>
