<svg width="16" height="30" viewBox="0 0 16 30" fill="none" xmlns="http://www.w3.org/2000/svg">
<path d="M14.2985 0H10.0361C5.71768 0 1.36037 3.18881 1.36037 10.3129C1.36037 14.003 2.9244 16.877 5.79127 18.5114L0.543903 28.0089C0.295185 28.4581 0.288716 28.9672 0.526559 29.3707C0.758778 29.7647 1.18328 30 1.66206 30H4.31621C4.91921 30 5.38946 29.7085 5.61484 29.198L10.5347 19.575H10.8938V28.8007C10.8938 29.4508 11.4424 30 12.0917 30H14.4106C15.1388 30 15.6473 29.4915 15.6473 28.7634V1.31269C15.6474 0.539812 15.0928 0 14.2985 0ZM10.8939 15.3004H10.2605C7.80455 15.3004 6.3383 13.2956 6.3383 9.93769C6.3383 5.76234 8.19052 4.27472 9.92396 4.27472H10.8939V15.3004Z" fill="#4F5A6E"/>
</svg>
